<?xml version="1.0" encoding="UTF-8" standalone="no"?><!DOCTYPE svg PUBLIC "-//W3C//DTD SVG 1.1//EN" "http://www.w3.org/Graphics/SVG/1.1/DTD/svg11.dtd"><svg width="100%" height="100%" viewBox="0 0 54 17" version="1.1" xmlns="http://www.w3.org/2000/svg" xmlns:xlink="http://www.w3.org/1999/xlink" xml:space="preserve" xmlns:serif="http://www.serif.com/" style="fill-rule:evenodd;clip-rule:evenodd;stroke-linejoin:round;stroke-miterlimit:1.41421;"><g><path d="M8.748,1.847c0.168,0 0.306,0.054 0.414,0.162c0.108,0.108 0.162,0.246 0.162,0.414c0,0.168 -0.054,0.306 -0.162,0.414c-0.108,0.108 -0.246,0.162 -0.414,0.162l-2.58,0l0,7.596c0,0.176 -0.06,0.324 -0.18,0.444c-0.12,0.12 -0.268,0.18 -0.444,0.18c-0.176,0 -0.324,-0.06 -0.444,-0.18c-0.12,-0.12 -0.18,-0.268 -0.18,-0.444l0,-7.596l-2.592,0c-0.168,0 -0.306,-0.054 -0.414,-0.162c-0.108,-0.108 -0.162,-0.246 -0.162,-0.414c0,-0.168 0.054,-0.306 0.162,-0.414c0.108,-0.108 0.246,-0.162 0.414,-0.162l6.42,0Z" style="fill:#00b700;fill-rule:nonzero;"/><path d="M12.312,4.583c0.424,0 0.756,0.064 0.996,0.192c0.24,0.128 0.36,0.288 0.36,0.48c0,0.056 -0.004,0.096 -0.012,0.12c-0.072,0.256 -0.232,0.384 -0.48,0.384c-0.04,0 -0.1,-0.008 -0.18,-0.024c-0.32,-0.056 -0.58,-0.084 -0.78,-0.084c-0.576,0 -1.04,0.132 -1.392,0.396c-0.352,0.264 -0.528,0.62 -0.528,1.068l0,3.504c0,0.192 -0.05,0.34 -0.15,0.444c-0.1,0.104 -0.25,0.156 -0.45,0.156c-0.192,0 -0.34,-0.05 -0.444,-0.15c-0.104,-0.1 -0.156,-0.25 -0.156,-0.45l0,-5.364c0,-0.192 0.052,-0.34 0.156,-0.444c0.104,-0.104 0.252,-0.156 0.444,-0.156c0.4,0 0.6,0.2 0.6,0.6l0,0.228c0.24,-0.28 0.536,-0.5 0.888,-0.66c0.352,-0.16 0.728,-0.24 1.128,-0.24Z" style="fill:#00b700;fill-rule:nonzero;"/><path d="M19.86,7.835c0,0.152 -0.052,0.278 -0.156,0.378c-0.104,0.1 -0.236,0.15 -0.396,0.15l-4.56,0c0.088,0.56 0.342,1.012 0.762,1.356c0.42,0.344 0.934,0.516 1.542,0.516c0.24,0 0.49,-0.044 0.75,-0.132c0.26,-0.088 0.474,-0.196 0.642,-0.324c0.112,-0.088 0.244,-0.132 0.396,-0.132c0.152,0 0.272,0.04 0.36,0.12c0.144,0.12 0.216,0.256 0.216,0.408c0,0.144 -0.064,0.264 -0.192,0.36c-0.272,0.216 -0.61,0.392 -1.014,0.528c-0.404,0.136 -0.79,0.204 -1.158,0.204c-0.656,0 -1.244,-0.142 -1.764,-0.426c-0.52,-0.284 -0.926,-0.678 -1.218,-1.182c-0.292,-0.504 -0.438,-1.076 -0.438,-1.716c0,-0.64 0.138,-1.214 0.414,-1.722c0.276,-0.508 0.66,-0.904 1.152,-1.188c0.492,-0.284 1.05,-0.426 1.674,-0.426c0.616,0 1.148,0.136 1.596,0.408c0.448,0.272 0.792,0.652 1.032,1.14c0.24,0.488 0.36,1.048 0.36,1.68Zm-2.988,-2.196c-0.584,0 -1.058,0.16 -1.422,0.48c-0.364,0.32 -0.594,0.748 -0.69,1.284l3.996,0c-0.072,-0.536 -0.272,-0.964 -0.6,-1.284c-0.328,-0.32 -0.756,-0.48 -1.284,-0.48Z" style="fill:#00b700;fill-rule:nonzero;"/><path d="M26.712,7.835c0,0.152 -0.052,0.278 -0.156,0.378c-0.104,0.1 -0.236,0.15 -0.396,0.15l-4.56,0c0.088,0.56 0.342,1.012 0.762,1.356c0.42,0.344 0.934,0.516 1.542,0.516c0.24,0 0.49,-0.044 0.75,-0.132c0.26,-0.088 0.474,-0.196 0.642,-0.324c0.112,-0.088 0.244,-0.132 0.396,-0.132c0.152,0 0.272,0.04 0.36,0.12c0.144,0.12 0.216,0.256 0.216,0.408c0,0.144 -0.064,0.264 -0.192,0.36c-0.272,0.216 -0.61,0.392 -1.014,0.528c-0.404,0.136 -0.79,0.204 -1.158,0.204c-0.656,0 -1.244,-0.142 -1.764,-0.426c-0.52,-0.284 -0.926,-0.678 -1.218,-1.182c-0.292,-0.504 -0.438,-1.076 -0.438,-1.716c0,-0.64 0.138,-1.214 0.414,-1.722c0.276,-0.508 0.66,-0.904 1.152,-1.188c0.492,-0.284 1.05,-0.426 1.674,-0.426c0.616,0 1.148,0.136 1.596,0.408c0.448,0.272 0.792,0.652 1.032,1.14c0.24,0.488 0.36,1.048 0.36,1.68Zm-2.988,-2.196c-0.584,0 -1.058,0.16 -1.422,0.48c-0.364,0.32 -0.594,0.748 -0.69,1.284l3.996,0c-0.072,-0.536 -0.272,-0.964 -0.6,-1.284c-0.328,-0.32 -0.756,-0.48 -1.284,-0.48Z" style="fill:#00b700;fill-rule:nonzero;"/><path d="M34.512,6.359c0.176,0 0.322,0.058 0.438,0.174c0.116,0.116 0.174,0.266 0.174,0.45l0,2.868c0,0.192 -0.064,0.34 -0.192,0.444c-0.84,0.696 -1.82,1.044 -2.94,1.044c-0.856,0 -1.638,-0.212 -2.346,-0.636c-0.708,-0.424 -1.266,-1.004 -1.674,-1.74c-0.408,-0.736 -0.612,-1.548 -0.612,-2.436c0,-0.88 0.204,-1.686 0.612,-2.418c0.408,-0.732 0.966,-1.312 1.674,-1.74c0.708,-0.428 1.49,-0.642 2.346,-0.642c0.608,0 1.134,0.08 1.578,0.24c0.444,0.16 0.894,0.424 1.35,0.792c0.096,0.072 0.16,0.146 0.192,0.222c0.032,0.076 0.048,0.166 0.048,0.27c0,0.16 -0.058,0.292 -0.174,0.396c-0.116,0.104 -0.254,0.156 -0.414,0.156c-0.144,0 -0.28,-0.052 -0.408,-0.156c-0.328,-0.28 -0.648,-0.482 -0.96,-0.606c-0.312,-0.124 -0.716,-0.186 -1.212,-0.186c-0.624,0 -1.198,0.164 -1.722,0.492c-0.524,0.328 -0.94,0.774 -1.248,1.338c-0.308,0.564 -0.462,1.178 -0.462,1.842c0,0.672 0.154,1.288 0.462,1.848c0.308,0.56 0.724,1.004 1.248,1.332c0.524,0.328 1.098,0.492 1.722,0.492c0.672,0 1.316,-0.2 1.932,-0.6l0,-2.136l-1.656,0c-0.184,0 -0.334,-0.052 -0.45,-0.156c-0.116,-0.104 -0.174,-0.236 -0.174,-0.396c0,-0.16 0.058,-0.292 0.174,-0.396c0.116,-0.104 0.266,-0.156 0.45,-0.156l2.244,0Z" style="fill:#00b700;fill-rule:nonzero;"/><path d="M41.568,4.643c0.184,0 0.332,0.056 0.444,0.168c0.112,0.112 0.168,0.26 0.168,0.444l0,5.352c0,0.176 -0.056,0.322 -0.168,0.438c-0.112,0.116 -0.26,0.174 -0.444,0.174c-0.176,0 -0.322,-0.058 -0.438,-0.174c-0.116,-0.116 -0.174,-0.262 -0.174,-0.438l0,-0.132c-0.256,0.256 -0.56,0.454 -0.912,0.594c-0.352,0.14 -0.728,0.21 -1.128,0.21c-0.552,0 -1.048,-0.12 -1.488,-0.36c-0.44,-0.24 -0.784,-0.59 -1.032,-1.05c-0.248,-0.46 -0.372,-1.014 -0.372,-1.662l0,-2.952c0,-0.176 0.058,-0.322 0.174,-0.438c0.116,-0.116 0.262,-0.174 0.438,-0.174c0.176,0 0.322,0.058 0.438,0.174c0.116,0.116 0.174,0.262 0.174,0.438l0,2.952c0,0.648 0.174,1.138 0.522,1.47c0.348,0.332 0.81,0.498 1.386,0.498c0.336,0 0.642,-0.068 0.918,-0.204c0.276,-0.136 0.492,-0.32 0.648,-0.552c0.156,-0.232 0.234,-0.492 0.234,-0.78l0,-3.384c0,-0.184 0.058,-0.332 0.174,-0.444c0.116,-0.112 0.262,-0.168 0.438,-0.168Z" style="fill:#00b700;fill-rule:nonzero;"/><path d="M48.876,4.715c0.248,0.096 0.372,0.252 0.372,0.468c0,0.08 -0.024,0.176 -0.072,0.288l-3.672,8.256c-0.096,0.248 -0.252,0.372 -0.468,0.372c-0.08,0 -0.176,-0.024 -0.288,-0.072c-0.24,-0.104 -0.36,-0.26 -0.36,-0.468c0,-0.096 0.024,-0.192 0.072,-0.288l1.2,-2.7l-2.7,-5.124c-0.04,-0.072 -0.06,-0.156 -0.06,-0.252c0,-0.104 0.032,-0.2 0.096,-0.288c0.064,-0.088 0.148,-0.156 0.252,-0.204c0.072,-0.032 0.152,-0.048 0.24,-0.048c0.224,0 0.392,0.112 0.504,0.336l2.196,4.368l1.932,-4.356c0.104,-0.232 0.26,-0.348 0.468,-0.348c0.104,0 0.2,0.02 0.288,0.06Z" style="fill:#00b700;fill-rule:nonzero;"/></g><g><path d="M48.175,14.888c0.031,-0.069 0.081,-0.116 0.153,-0.143c0.072,-0.027 0.142,-0.025 0.211,0.005c0.068,0.031 0.117,0.081 0.144,0.151c0.027,0.071 0.026,0.14 -0.005,0.209c-0.03,0.069 -0.08,0.117 -0.151,0.144c-0.07,0.027 -0.139,0.025 -0.208,-0.005c-0.072,-0.031 -0.121,-0.083 -0.148,-0.154c-0.026,-0.072 -0.025,-0.141 0.004,-0.207Z" style="fill:#2e2e2e;fill-rule:nonzero;"/><path d="M46.865,12.605c0.158,-0.358 0.423,-0.588 0.797,-0.691c0.036,-0.011 0.071,-0.01 0.106,0.006c0.046,0.02 0.075,0.062 0.088,0.126c0.006,0.033 0.003,0.064 -0.01,0.093c-0.019,0.043 -0.059,0.075 -0.12,0.096c-0.132,0.044 -0.245,0.108 -0.338,0.19c-0.092,0.082 -0.167,0.187 -0.222,0.313c-0.07,0.158 -0.094,0.315 -0.072,0.472c0.022,0.156 0.086,0.299 0.194,0.427c0.108,0.128 0.248,0.23 0.42,0.306c0.169,0.074 0.338,0.106 0.506,0.094c0.167,-0.012 0.318,-0.065 0.453,-0.16c0.134,-0.095 0.238,-0.225 0.311,-0.392c0.101,-0.229 0.121,-0.441 0.06,-0.636c-0.015,-0.051 -0.014,-0.097 0.004,-0.137c0.015,-0.034 0.04,-0.061 0.076,-0.079c0.052,-0.025 0.099,-0.028 0.142,-0.009c0.038,0.016 0.063,0.044 0.076,0.084c0.101,0.291 0.082,0.595 -0.057,0.91c-0.098,0.224 -0.239,0.401 -0.422,0.533c-0.183,0.132 -0.388,0.208 -0.615,0.23c-0.227,0.021 -0.452,-0.017 -0.676,-0.116c-0.229,-0.101 -0.414,-0.24 -0.553,-0.418c-0.139,-0.178 -0.222,-0.375 -0.249,-0.593c-0.028,-0.217 0.006,-0.434 0.101,-0.649Z" style="fill:#2e2e2e;fill-rule:nonzero;"/><path d="M47.852,10.365c0.1,-0.227 0.241,-0.408 0.424,-0.543c0.183,-0.135 0.389,-0.215 0.619,-0.238c0.229,-0.024 0.458,0.014 0.684,0.114c0.227,0.1 0.408,0.241 0.545,0.425c0.136,0.183 0.216,0.389 0.239,0.616c0.023,0.228 -0.015,0.455 -0.115,0.681c-0.1,0.227 -0.242,0.408 -0.425,0.545c-0.184,0.137 -0.389,0.216 -0.617,0.239c-0.227,0.023 -0.454,-0.015 -0.681,-0.115c-0.226,-0.1 -0.409,-0.242 -0.547,-0.426c-0.138,-0.184 -0.218,-0.39 -0.241,-0.617c-0.023,-0.228 0.016,-0.455 0.115,-0.681Zm0.301,0.132c-0.072,0.164 -0.098,0.329 -0.08,0.497c0.019,0.167 0.08,0.319 0.182,0.455c0.103,0.136 0.24,0.242 0.412,0.317c0.17,0.075 0.339,0.104 0.509,0.088c0.169,-0.016 0.322,-0.073 0.458,-0.172c0.136,-0.1 0.241,-0.231 0.313,-0.394c0.073,-0.167 0.1,-0.333 0.081,-0.499c-0.02,-0.166 -0.081,-0.316 -0.184,-0.451c-0.104,-0.134 -0.24,-0.239 -0.409,-0.313c-0.172,-0.076 -0.343,-0.107 -0.512,-0.092c-0.169,0.014 -0.321,0.07 -0.456,0.168c-0.136,0.098 -0.241,0.23 -0.314,0.396Z" style="fill:#2e2e2e;fill-rule:nonzero;"/><path d="M49.542,6.518c0.075,-0.17 0.181,-0.302 0.319,-0.397c0.138,-0.095 0.297,-0.146 0.476,-0.154c0.18,-0.008 0.368,0.031 0.563,0.116l1.238,0.546c0.049,0.022 0.082,0.054 0.099,0.098c0.017,0.043 0.014,0.089 -0.007,0.138c-0.022,0.049 -0.054,0.082 -0.098,0.1c-0.044,0.019 -0.091,0.017 -0.14,-0.005l-1.238,-0.545c-0.204,-0.09 -0.388,-0.109 -0.553,-0.057c-0.165,0.053 -0.285,0.163 -0.36,0.332c-0.079,0.181 -0.084,0.354 -0.013,0.519c0.072,0.165 0.205,0.289 0.402,0.372l1.247,0.549c0.048,0.022 0.081,0.054 0.098,0.098c0.017,0.043 0.015,0.089 -0.007,0.138c-0.021,0.049 -0.054,0.082 -0.098,0.1c-0.044,0.019 -0.09,0.017 -0.139,-0.004l-1.239,-0.546c-0.203,-0.09 -0.388,-0.109 -0.553,-0.057c-0.165,0.053 -0.285,0.163 -0.359,0.333c-0.079,0.177 -0.084,0.349 -0.017,0.516c0.067,0.166 0.192,0.29 0.376,0.371l1.272,0.561c0.049,0.021 0.082,0.054 0.099,0.097c0.017,0.044 0.015,0.09 -0.007,0.139c-0.021,0.048 -0.054,0.082 -0.098,0.1c-0.044,0.018 -0.091,0.016 -0.139,-0.005l-2.022,-0.891c-0.049,-0.021 -0.082,-0.055 -0.099,-0.1c-0.018,-0.046 -0.016,-0.093 0.005,-0.141c0.022,-0.049 0.055,-0.082 0.1,-0.098c0.045,-0.016 0.091,-0.013 0.14,0.008l0.095,0.042c-0.057,-0.121 -0.086,-0.248 -0.087,-0.38c-0.002,-0.132 0.026,-0.263 0.083,-0.392c0.069,-0.158 0.168,-0.284 0.295,-0.379c0.127,-0.094 0.272,-0.15 0.434,-0.168c-0.093,-0.14 -0.145,-0.293 -0.158,-0.457c-0.013,-0.165 0.017,-0.331 0.09,-0.497Z" style="fill:#2e2e2e;fill-rule:nonzero;"/></g></svg>