<?xml version="1.0" encoding="UTF-8" standalone="no"?><!DOCTYPE svg PUBLIC "-//W3C//DTD SVG 1.1//EN" "http://www.w3.org/Graphics/SVG/1.1/DTD/svg11.dtd"><svg width="100%" height="100%" viewBox="0 0 72 17" version="1.1" xmlns="http://www.w3.org/2000/svg" xmlns:xlink="http://www.w3.org/1999/xlink" xml:space="preserve" xmlns:serif="http://www.serif.com/" style="fill-rule:evenodd;clip-rule:evenodd;stroke-linejoin:round;stroke-miterlimit:1.41421;"><g transform="matrix(0.24,0,0,0.24,-19.3226,-68.2409)"><path d="M107.561,328.312c0.433,0 0.791,0.15 1.075,0.45c0.283,0.3 0.425,0.667 0.425,1.1c0,0.433 -0.142,0.792 -0.425,1.075c-0.284,0.283 -0.642,0.425 -1.075,0.425l-19.75,0c-0.434,0 -0.8,-0.142 -1.1,-0.425c-0.3,-0.283 -0.45,-0.642 -0.45,-1.075c0,-0.4 0.15,-0.767 0.45,-1.1l15.8,-18.8c0.7,-0.733 1.291,-1.675 1.775,-2.825c0.483,-1.15 0.725,-2.225 0.725,-3.225c0,-1.6 -0.359,-3.058 -1.075,-4.375c-0.717,-1.317 -1.692,-2.35 -2.925,-3.1c-1.234,-0.75 -2.6,-1.125 -4.1,-1.125c-1.5,0 -2.867,0.375 -4.1,1.125c-1.234,0.75 -2.209,1.783 -2.925,3.1c-0.717,1.317 -1.075,2.775 -1.075,4.375c0,0.433 -0.142,0.792 -0.425,1.075c-0.284,0.283 -0.642,0.425 -1.075,0.425c-0.434,0 -0.8,-0.142 -1.1,-0.425c-0.3,-0.283 -0.45,-0.642 -0.45,-1.075c0,-2.2 0.483,-4.183 1.45,-5.95c0.966,-1.767 2.3,-3.158 4,-4.175c1.7,-1.017 3.6,-1.525 5.7,-1.525c2.1,0 4,0.508 5.7,1.525c1.7,1.017 3.033,2.408 4,4.175c0.966,1.767 1.45,3.75 1.45,5.95c0,1.533 -0.309,2.958 -0.925,4.275c-0.617,1.317 -1.492,2.642 -2.625,3.975l-13.75,16.15l16.8,0Z" style="fill:#2e2e2e;fill-rule:nonzero;"/><path d="M122.961,292.162c2.466,0 4.566,0.792 6.3,2.375c1.733,1.583 3.058,3.85 3.975,6.8c0.916,2.95 1.375,6.425 1.375,10.425c0,6.133 -1.017,10.933 -3.05,14.4c-2.034,3.467 -4.9,5.2 -8.6,5.2c-2.434,0 -4.525,-0.783 -6.275,-2.35c-1.75,-1.567 -3.084,-3.817 -4,-6.75c-0.917,-2.933 -1.375,-6.433 -1.375,-10.5c0,-4.033 0.458,-7.517 1.375,-10.45c0.916,-2.933 2.25,-5.192 4,-6.775c1.75,-1.583 3.841,-2.375 6.275,-2.375Zm0,3.05c-2.8,0 -4.934,1.508 -6.4,4.525c-1.467,3.017 -2.2,7.025 -2.2,12.025c0,5.033 0.725,9.058 2.175,12.075c1.45,3.017 3.591,4.525 6.425,4.525c2.833,0 4.975,-1.508 6.425,-4.525c1.45,-3.017 2.175,-7.042 2.175,-12.075c0,-5 -0.734,-9.008 -2.2,-12.025c-1.467,-3.017 -3.6,-4.525 -6.4,-4.525Z" style="fill:#2e2e2e;fill-rule:nonzero;"/><path d="M135.411,295.312c-0.434,0 -0.8,-0.15 -1.1,-0.45c-0.3,-0.3 -0.45,-0.667 -0.45,-1.1c0,-0.433 0.15,-0.792 0.45,-1.075c0.3,-0.283 0.666,-0.425 1.1,-0.425l21.25,0c0.433,0 0.791,0.142 1.075,0.425c0.283,0.283 0.425,0.642 0.425,1.075c0,0.133 -0.084,0.417 -0.25,0.85l-16.6,35.85c-0.134,0.267 -0.325,0.483 -0.575,0.65c-0.25,0.167 -0.525,0.25 -0.825,0.25c-0.434,0 -0.8,-0.142 -1.1,-0.425c-0.3,-0.283 -0.45,-0.642 -0.45,-1.075c0,-0.167 0.116,-0.517 0.35,-1.05l15.35,-33.5l-18.65,0Z" style="fill:#2e2e2e;fill-rule:nonzero;"/><path d="M192.161,292.312c0.7,0 1.275,0.225 1.725,0.675c0.45,0.45 0.675,1.025 0.675,1.725c0,0.7 -0.225,1.275 -0.675,1.725c-0.45,0.45 -1.025,0.675 -1.725,0.675l-10.75,0l0,31.65c0,0.733 -0.25,1.35 -0.75,1.85c-0.5,0.5 -1.117,0.75 -1.85,0.75c-0.734,0 -1.35,-0.25 -1.85,-0.75c-0.5,-0.5 -0.75,-1.117 -0.75,-1.85l0,-31.65l-10.8,0c-0.7,0 -1.275,-0.225 -1.725,-0.675c-0.45,-0.45 -0.675,-1.025 -0.675,-1.725c0,-0.7 0.225,-1.275 0.675,-1.725c0.45,-0.45 1.025,-0.675 1.725,-0.675l26.75,0Z" style="fill:#00b700;fill-rule:nonzero;"/><path d="M207.011,303.712c1.766,0 3.15,0.267 4.15,0.8c1,0.533 1.5,1.2 1.5,2c0,0.233 -0.017,0.4 -0.05,0.5c-0.3,1.067 -0.967,1.6 -2,1.6c-0.167,0 -0.417,-0.033 -0.75,-0.1c-1.334,-0.233 -2.417,-0.35 -3.25,-0.35c-2.4,0 -4.334,0.55 -5.8,1.65c-1.467,1.1 -2.2,2.583 -2.2,4.45l0,14.6c0,0.8 -0.209,1.417 -0.625,1.85c-0.417,0.433 -1.042,0.65 -1.875,0.65c-0.8,0 -1.417,-0.208 -1.85,-0.625c-0.434,-0.417 -0.65,-1.042 -0.65,-1.875l0,-22.35c0,-0.8 0.216,-1.417 0.65,-1.85c0.433,-0.433 1.05,-0.65 1.85,-0.65c1.666,0 2.5,0.833 2.5,2.5l0,0.95c1,-1.167 2.233,-2.083 3.7,-2.75c1.466,-0.667 3.033,-1 4.7,-1Z" style="fill:#00b700;fill-rule:nonzero;"/><path d="M238.461,317.262c0,0.633 -0.217,1.158 -0.65,1.575c-0.434,0.417 -0.984,0.625 -1.65,0.625l-19,0c0.366,2.333 1.425,4.217 3.175,5.65c1.75,1.433 3.891,2.15 6.425,2.15c1,0 2.041,-0.183 3.125,-0.55c1.083,-0.367 1.975,-0.817 2.675,-1.35c0.466,-0.367 1.016,-0.55 1.65,-0.55c0.633,0 1.133,0.167 1.5,0.5c0.6,0.5 0.9,1.067 0.9,1.7c0,0.6 -0.267,1.1 -0.8,1.5c-1.134,0.9 -2.542,1.633 -4.225,2.2c-1.684,0.567 -3.292,0.85 -4.825,0.85c-2.734,0 -5.184,-0.592 -7.35,-1.775c-2.167,-1.183 -3.859,-2.825 -5.075,-4.925c-1.217,-2.1 -1.825,-4.483 -1.825,-7.15c0,-2.667 0.575,-5.058 1.725,-7.175c1.15,-2.117 2.75,-3.767 4.8,-4.95c2.05,-1.183 4.375,-1.775 6.975,-1.775c2.566,0 4.783,0.567 6.65,1.7c1.866,1.133 3.3,2.717 4.3,4.75c1,2.033 1.5,4.367 1.5,7Zm-12.45,-9.15c-2.434,0 -4.409,0.667 -5.925,2c-1.517,1.333 -2.475,3.117 -2.875,5.35l16.65,0c-0.3,-2.233 -1.134,-4.017 -2.5,-5.35c-1.367,-1.333 -3.15,-2 -5.35,-2Z" style="fill:#00b700;fill-rule:nonzero;"/><path d="M267.011,317.262c0,0.633 -0.217,1.158 -0.65,1.575c-0.434,0.417 -0.984,0.625 -1.65,0.625l-19,0c0.366,2.333 1.425,4.217 3.175,5.65c1.75,1.433 3.891,2.15 6.425,2.15c1,0 2.041,-0.183 3.125,-0.55c1.083,-0.367 1.975,-0.817 2.675,-1.35c0.466,-0.367 1.016,-0.55 1.65,-0.55c0.633,0 1.133,0.167 1.5,0.5c0.6,0.5 0.9,1.067 0.9,1.7c0,0.6 -0.267,1.1 -0.8,1.5c-1.134,0.9 -2.542,1.633 -4.225,2.2c-1.684,0.567 -3.292,0.85 -4.825,0.85c-2.734,0 -5.184,-0.592 -7.35,-1.775c-2.167,-1.183 -3.859,-2.825 -5.075,-4.925c-1.217,-2.1 -1.825,-4.483 -1.825,-7.15c0,-2.667 0.575,-5.058 1.725,-7.175c1.15,-2.117 2.75,-3.767 4.8,-4.95c2.05,-1.183 4.375,-1.775 6.975,-1.775c2.566,0 4.783,0.567 6.65,1.7c1.866,1.133 3.3,2.717 4.3,4.75c1,2.033 1.5,4.367 1.5,7Zm-12.45,-9.15c-2.434,0 -4.409,0.667 -5.925,2c-1.517,1.333 -2.475,3.117 -2.875,5.35l16.65,0c-0.3,-2.233 -1.134,-4.017 -2.5,-5.35c-1.367,-1.333 -3.15,-2 -5.35,-2Z" style="fill:#00b700;fill-rule:nonzero;"/><path d="M299.511,311.112c0.733,0 1.341,0.242 1.825,0.725c0.483,0.483 0.725,1.108 0.725,1.875l0,11.95c0,0.8 -0.267,1.417 -0.8,1.85c-3.5,2.9 -7.584,4.35 -12.25,4.35c-3.567,0 -6.825,-0.883 -9.775,-2.65c-2.95,-1.767 -5.275,-4.183 -6.975,-7.25c-1.7,-3.067 -2.55,-6.45 -2.55,-10.15c0,-3.667 0.85,-7.025 2.55,-10.075c1.7,-3.05 4.025,-5.467 6.975,-7.25c2.95,-1.783 6.208,-2.675 9.775,-2.675c2.533,0 4.725,0.333 6.575,1c1.85,0.667 3.725,1.767 5.625,3.3c0.4,0.3 0.666,0.608 0.8,0.925c0.133,0.317 0.2,0.692 0.2,1.125c0,0.667 -0.242,1.217 -0.725,1.65c-0.484,0.433 -1.059,0.65 -1.725,0.65c-0.6,0 -1.167,-0.217 -1.7,-0.65c-1.367,-1.167 -2.7,-2.008 -4,-2.525c-1.3,-0.517 -2.984,-0.775 -5.05,-0.775c-2.6,0 -4.992,0.683 -7.175,2.05c-2.184,1.367 -3.917,3.225 -5.2,5.575c-1.284,2.35 -1.925,4.908 -1.925,7.675c0,2.8 0.641,5.367 1.925,7.7c1.283,2.333 3.016,4.183 5.2,5.55c2.183,1.367 4.575,2.05 7.175,2.05c2.8,0 5.483,-0.833 8.05,-2.5l0,-8.9l-6.9,0c-0.767,0 -1.392,-0.217 -1.875,-0.65c-0.484,-0.433 -0.725,-0.983 -0.725,-1.65c0,-0.667 0.241,-1.217 0.725,-1.65c0.483,-0.433 1.108,-0.65 1.875,-0.65l9.35,0Z" style="fill:#00b700;fill-rule:nonzero;"/><path d="M328.911,303.962c0.766,0 1.383,0.233 1.85,0.7c0.466,0.467 0.7,1.083 0.7,1.85l0,22.3c0,0.733 -0.234,1.342 -0.7,1.825c-0.467,0.483 -1.084,0.725 -1.85,0.725c-0.734,0 -1.342,-0.242 -1.825,-0.725c-0.484,-0.483 -0.725,-1.092 -0.725,-1.825l0,-0.55c-1.067,1.067 -2.334,1.892 -3.8,2.475c-1.467,0.583 -3.034,0.875 -4.7,0.875c-2.3,0 -4.367,-0.5 -6.2,-1.5c-1.834,-1 -3.267,-2.458 -4.3,-4.375c-1.034,-1.917 -1.55,-4.225 -1.55,-6.925l0,-12.3c0,-0.733 0.241,-1.342 0.725,-1.825c0.483,-0.483 1.091,-0.725 1.825,-0.725c0.733,0 1.341,0.242 1.825,0.725c0.483,0.483 0.725,1.092 0.725,1.825l0,12.3c0,2.7 0.725,4.742 2.175,6.125c1.45,1.383 3.375,2.075 5.775,2.075c1.4,0 2.675,-0.283 3.825,-0.85c1.15,-0.567 2.05,-1.333 2.7,-2.3c0.65,-0.967 0.975,-2.05 0.975,-3.25l0,-14.1c0,-0.767 0.241,-1.383 0.725,-1.85c0.483,-0.467 1.091,-0.7 1.825,-0.7Z" style="fill:#00b700;fill-rule:nonzero;"/><path d="M359.361,304.262c1.033,0.4 1.55,1.05 1.55,1.95c0,0.333 -0.1,0.733 -0.3,1.2l-15.3,34.4c-0.4,1.033 -1.05,1.55 -1.95,1.55c-0.334,0 -0.734,-0.1 -1.2,-0.3c-1,-0.433 -1.5,-1.083 -1.5,-1.95c0,-0.4 0.1,-0.8 0.3,-1.2l5,-11.25l-11.25,-21.35c-0.167,-0.3 -0.25,-0.65 -0.25,-1.05c0,-0.433 0.133,-0.833 0.4,-1.2c0.266,-0.367 0.616,-0.65 1.05,-0.85c0.3,-0.133 0.633,-0.2 1,-0.2c0.933,0 1.633,0.467 2.1,1.4l9.15,18.2l8.05,-18.15c0.433,-0.967 1.083,-1.45 1.95,-1.45c0.433,0 0.833,0.083 1.2,0.25Z" style="fill:#00b700;fill-rule:nonzero;"/></g><g transform="matrix(0.0967888,-0.219618,0.219618,0.0967888,-74.6011,49.0276)"><path d="M366.546,479.681c0.314,0 0.581,0.114 0.803,0.342c0.222,0.229 0.333,0.5 0.333,0.813c0,0.313 -0.111,0.581 -0.333,0.803c-0.222,0.222 -0.489,0.333 -0.803,0.333c-0.313,0 -0.581,-0.111 -0.802,-0.333c-0.222,-0.222 -0.333,-0.49 -0.333,-0.803c0,-0.326 0.114,-0.6 0.342,-0.822c0.229,-0.222 0.493,-0.333 0.793,-0.333Z" style="fill:#2e2e2e;fill-rule:nonzero;"/><path d="M373.048,470.849c1.632,0 2.957,0.626 3.976,1.88c0.104,0.117 0.156,0.254 0.156,0.411c0,0.209 -0.111,0.392 -0.333,0.548c-0.117,0.079 -0.241,0.118 -0.372,0.118c-0.196,0 -0.385,-0.098 -0.568,-0.294c-0.391,-0.431 -0.822,-0.754 -1.292,-0.969c-0.47,-0.216 -0.992,-0.324 -1.567,-0.324c-0.718,0 -1.358,0.173 -1.919,0.519c-0.561,0.346 -0.996,0.833 -1.302,1.459c-0.307,0.627 -0.461,1.332 -0.461,2.115c0,0.771 0.164,1.466 0.49,2.086c0.326,0.62 0.783,1.106 1.371,1.459c0.587,0.352 1.26,0.529 2.017,0.529c1.044,0 1.886,-0.281 2.526,-0.842c0.17,-0.144 0.346,-0.216 0.529,-0.216c0.157,0 0.3,0.052 0.431,0.157c0.183,0.157 0.274,0.333 0.274,0.529c0,0.169 -0.065,0.313 -0.196,0.43c-0.94,0.875 -2.128,1.313 -3.564,1.313c-1.018,0 -1.932,-0.239 -2.742,-0.715c-0.809,-0.477 -1.446,-1.13 -1.909,-1.959c-0.464,-0.829 -0.695,-1.752 -0.695,-2.771c0,-1.044 0.222,-1.981 0.666,-2.81c0.443,-0.829 1.057,-1.478 1.84,-1.948c0.784,-0.47 1.665,-0.705 2.644,-0.705Z" style="fill:#2e2e2e;fill-rule:nonzero;"/><path d="M383.251,470.849c1.031,0 1.958,0.235 2.781,0.705c0.822,0.47 1.472,1.122 1.948,1.958c0.477,0.835 0.715,1.769 0.715,2.8c0,1.032 -0.235,1.962 -0.705,2.791c-0.47,0.829 -1.119,1.479 -1.948,1.949c-0.829,0.47 -1.76,0.705 -2.791,0.705c-1.031,0 -1.962,-0.235 -2.791,-0.705c-0.829,-0.47 -1.478,-1.12 -1.948,-1.949c-0.47,-0.829 -0.705,-1.759 -0.705,-2.791c0,-1.031 0.235,-1.965 0.705,-2.8c0.47,-0.836 1.119,-1.488 1.948,-1.958c0.829,-0.47 1.76,-0.705 2.791,-0.705Zm0,1.37c-0.744,0 -1.42,0.177 -2.027,0.529c-0.607,0.353 -1.083,0.839 -1.429,1.459c-0.346,0.62 -0.519,1.322 -0.519,2.105c0,0.771 0.173,1.466 0.519,2.086c0.346,0.62 0.822,1.106 1.429,1.459c0.607,0.352 1.283,0.529 2.027,0.529c0.757,0 1.436,-0.177 2.037,-0.529c0.6,-0.353 1.07,-0.839 1.41,-1.459c0.339,-0.62 0.509,-1.315 0.509,-2.086c0,-0.783 -0.17,-1.485 -0.509,-2.105c-0.34,-0.62 -0.81,-1.106 -1.41,-1.459c-0.601,-0.352 -1.28,-0.529 -2.037,-0.529Z" style="fill:#2e2e2e;fill-rule:nonzero;"/><path d="M400.759,470.829c0.77,0 1.452,0.183 2.046,0.548c0.594,0.366 1.057,0.885 1.39,1.557c0.333,0.673 0.5,1.453 0.5,2.34l0,5.64c0,0.222 -0.069,0.402 -0.206,0.539c-0.137,0.137 -0.316,0.206 -0.538,0.206c-0.222,0 -0.405,-0.069 -0.549,-0.206c-0.143,-0.137 -0.215,-0.317 -0.215,-0.539l0,-5.64c0,-0.927 -0.238,-1.661 -0.715,-2.203c-0.476,-0.541 -1.1,-0.812 -1.87,-0.812c-0.823,0 -1.488,0.274 -1.998,0.822c-0.509,0.548 -0.757,1.266 -0.744,2.154l0,5.679c0,0.222 -0.068,0.402 -0.205,0.539c-0.138,0.137 -0.317,0.206 -0.539,0.206c-0.222,0 -0.405,-0.069 -0.548,-0.206c-0.144,-0.137 -0.216,-0.317 -0.216,-0.539l0,-5.64c0,-0.927 -0.238,-1.661 -0.715,-2.203c-0.476,-0.541 -1.099,-0.812 -1.87,-0.812c-0.809,0 -1.475,0.267 -1.997,0.803c-0.522,0.535 -0.784,1.22 -0.784,2.056l0,5.796c0,0.222 -0.068,0.402 -0.205,0.539c-0.137,0.137 -0.317,0.206 -0.539,0.206c-0.222,0 -0.404,-0.069 -0.548,-0.206c-0.144,-0.137 -0.215,-0.317 -0.215,-0.539l0,-9.204c0,-0.222 0.071,-0.404 0.215,-0.548c0.144,-0.144 0.326,-0.215 0.548,-0.215c0.222,0 0.402,0.071 0.539,0.215c0.137,0.144 0.205,0.326 0.205,0.548l0,0.431c0.366,-0.418 0.8,-0.741 1.303,-0.969c0.502,-0.229 1.047,-0.343 1.635,-0.343c0.718,0 1.364,0.163 1.939,0.49c0.574,0.326 1.031,0.783 1.371,1.37c0.378,-0.587 0.871,-1.044 1.478,-1.37c0.607,-0.327 1.289,-0.49 2.047,-0.49Z" style="fill:#2e2e2e;fill-rule:nonzero;"/></g></svg>